<svg version="1.1" width="16" height="16" viewBox="0 0 16 16" xmlns="http://www.w3.org/2000/svg" xmlns:xlink="http://www.w3.org/1999/xlink" fill="currentColor" overflow="hidden"><path d=" M 11 6 C 11 7.65685 9.65685 9 8 9 C 6.34315 9 5 7.65685 5 6 C 5 4.34315 6.34315 3 8 3 C 9.65685 3 11 4.34315 11 6" stroke="none" stroke-width="1" stroke-dasharray="" stroke-dashoffset="1" fill="#CCAF54" fill-opacity="1"/><path d=" M 0 8 C -1.77636e-15 3.58172 3.58172 -8.88178e-16 8 -8.88178e-16 C 12.4183 -2.66454e-15 16 3.58172 16 8 C 16 12.4183 12.4183 16 8 16 C 3.58172 16 -8.88178e-16 12.4183 -8.88178e-16 8 M 8 1 C 4.13401 1.00021 1.00017 4.13438 1.00037 8.00037 C 1.00046 9.58849 1.54056 11.1294 2.532 12.37 C 3.242 11.226 4.805 10 8 10 C 11.195 10 12.757 11.225 13.468 12.37 C 15.8815 9.3499 15.3897 4.94511 12.3696 2.53163 C 11.129 1.54019 9.58811 1.00008 8 1" stroke="none" stroke-width="1" stroke-dasharray="" stroke-dashoffset="1" fill="#CCAF54" fill-rule="evenodd" fill-opacity="1"/></svg>